<svg width="20" height="20" viewBox="0 0 20 20" fill="none" xmlns="http://www.w3.org/2000/svg">
<path d="M11.175 9.99997L16.425 4.7583C16.5819 4.60139 16.6701 4.38856 16.6701 4.16664C16.6701 3.94472 16.5819 3.73189 16.425 3.57497C16.2681 3.41805 16.0553 3.3299 15.8333 3.3299C15.6114 3.3299 15.3986 3.41805 15.2417 3.57497L10 8.82497L4.75834 3.57497C4.60142 3.41805 4.38859 3.3299 4.16667 3.3299C3.94475 3.3299 3.73192 3.41805 3.57501 3.57497C3.41809 3.73189 3.32993 3.94472 3.32993 4.16664C3.32993 4.38856 3.41809 4.60139 3.57501 4.7583L8.82501 9.99997L3.57501 15.2416C3.4969 15.3191 3.4349 15.4113 3.3926 15.5128C3.35029 15.6144 3.32851 15.7233 3.32851 15.8333C3.32851 15.9433 3.35029 16.0522 3.3926 16.1538C3.4349 16.2553 3.4969 16.3475 3.57501 16.425C3.65247 16.5031 3.74464 16.5651 3.84619 16.6074C3.94774 16.6497 4.05666 16.6715 4.16667 16.6715C4.27668 16.6715 4.3856 16.6497 4.48715 16.6074C4.5887 16.5651 4.68087 16.5031 4.75834 16.425L10 11.175L15.2417 16.425C15.3191 16.5031 15.4113 16.5651 15.5129 16.6074C15.6144 16.6497 15.7233 16.6715 15.8333 16.6715C15.9433 16.6715 16.0523 16.6497 16.1538 16.6074C16.2554 16.5651 16.3475 16.5031 16.425 16.425C16.5031 16.3475 16.5651 16.2553 16.6074 16.1538C16.6497 16.0522 16.6715 15.9433 16.6715 15.8333C16.6715 15.7233 16.6497 15.6144 16.6074 15.5128C16.5651 15.4113 16.5031 15.3191 16.425 15.2416L11.175 9.99997Z" fill="#393B46"/>
</svg>
