<svg width="24" height="20" viewBox="0 0 24 20" fill="none" xmlns="http://www.w3.org/2000/svg">
<path d="M23.954 2.56911C23.0555 2.96472 22.1036 3.22585 21.129 3.34411C22.1551 2.72736 22.9234 1.76016 23.292 0.621111C22.341 1.17611 21.287 1.58011 20.165 1.80511C19.4248 1.01354 18.4439 0.488532 17.3746 0.311612C16.3054 0.134692 15.2077 0.315761 14.2519 0.826701C13.2962 1.33764 12.5359 2.14986 12.0891 3.13723C11.6423 4.12461 11.534 5.23188 11.781 6.28711C7.691 6.09411 4.066 4.13011 1.64 1.16111C1.19879 1.91092 0.968664 2.76614 0.974 3.63611C0.974 5.34611 1.844 6.84911 3.162 7.73211C2.38086 7.70725 1.61697 7.49605 0.934 7.11611V7.17711C0.933557 8.3135 1.32627 9.41505 2.04551 10.2949C2.76474 11.1747 3.76621 11.7786 4.88 12.0041C4.1583 12.1975 3.40241 12.2265 2.668 12.0891C2.98425 13.067 3.59783 13.9219 4.42315 14.5344C5.24847 15.147 6.24439 15.4867 7.272 15.5061C5.53149 16.872 3.38246 17.6133 1.17 17.6111C0.78 17.6111 0.391 17.5881 0 17.5441C2.25571 18.9884 4.87851 19.7551 7.557 19.7531C16.611 19.7531 21.556 12.2571 21.556 5.76711C21.556 5.55811 21.556 5.34711 21.541 5.13711C22.507 4.44196 23.3402 3.57892 24.001 2.58911L23.954 2.56911Z" fill="#374A61"/>
</svg>
